<svg width="47" height="41" viewBox="0 0 47 41" fill="none" xmlns="http://www.w3.org/2000/svg">
<g clip-path="url(#clip0_156_24930)">
<path d="M17.4368 12.7542C17.5978 14.2135 18.8143 15.3534 20.335 15.4743C20.6302 15.5002 20.9254 15.5175 21.2385 15.5434C21.2653 15.552 21.2921 15.552 21.319 15.552C21.3637 15.552 21.4174 15.552 21.4621 15.5606C21.5694 15.5693 21.6678 15.5779 21.7752 15.5865C21.811 15.5865 21.8468 15.5865 21.8915 15.5865C27.8937 15.8542 33.9675 15.7592 39.9697 15.3016C41.4904 15.1807 42.707 14.0408 42.868 12.5815C43.2616 9.01514 43.4226 5.39698 43.351 1.80474C43.3421 1.3298 42.8233 1.02757 42.385 1.23481C42.1524 1.34707 42.0003 1.58022 42.0093 1.83064C42.0808 5.37108 41.9198 8.92879 41.5352 12.4433C41.4457 13.2809 40.739 13.9372 39.8624 14.0063C37.6887 14.1704 35.5061 14.2913 33.3235 14.3603C33.3145 14.3603 33.3145 14.3603 33.3145 14.3517H23.8147C23.0544 14.3258 22.294 14.2999 21.5426 14.2653C21.158 14.2394 20.8002 14.2135 20.4424 14.1876C19.5657 14.1185 18.8591 13.4623 18.7696 12.6247C18.376 9.04968 18.215 5.42289 18.2955 1.83064C18.3044 1.31253 17.7141 0.993025 17.2579 1.26935C17.07 1.39024 16.9537 1.58022 16.9537 1.7961C16.8732 5.44016 17.0342 9.11876 17.4368 12.7542Z" fill="#F5FDFC"/>
<path d="M39.0118 24.075L31.6499 28.6949C30.818 29.213 29.825 29.4116 28.8589 29.2475L28.1433 29.1266C27.7766 29.0662 27.4277 29.2993 27.3651 29.6534C27.3025 30.0074 27.544 30.3442 27.9108 30.4046L28.6353 30.5255C29.9413 30.7414 31.2742 30.4823 32.3923 29.7829L41.7848 23.8937C42.7598 23.2806 44.03 23.4878 44.7456 24.3772C44.9245 24.6018 45.0587 24.8522 45.1303 25.1199C45.3629 25.9402 45.0766 26.8037 44.3968 27.3478C44.3878 27.3564 44.3878 27.3564 44.3789 27.365L32.6786 36.4061C31.8645 37.0365 30.8001 37.3301 29.7624 37.2092L14.0188 35.3612C13.9115 35.3526 13.8042 35.3612 13.7058 35.3958L11.1653 36.3025C10.7002 34.8604 10.1992 33.4097 9.67147 31.9849C9.54624 31.6481 9.1616 31.4754 8.81273 31.5963C8.46387 31.7172 8.28497 32.0885 8.4102 32.4253C9.0632 34.1955 9.68042 36.0089 10.235 37.805C8.87535 38.5563 7.39045 39.0571 5.83398 39.2989C4.45642 36.0607 3.23987 32.7275 2.20222 29.3684C3.57084 28.6085 5.05574 28.1077 6.61221 27.8659C6.91635 28.5826 7.2026 29.282 7.4799 29.9729C7.61408 30.3096 7.99872 30.4737 8.34758 30.3442C8.69645 30.2147 8.8664 29.8433 8.73223 29.5066C8.63383 29.2475 8.52649 28.9971 8.41914 28.738L9.60886 28.4185C9.91299 28.3408 10.1187 28.0558 10.1008 27.7536C10.0293 26.6656 10.566 25.6294 11.5142 25.0422C11.6215 24.9731 11.7289 24.9126 11.8452 24.8608L22.0606 20.0337C22.2127 19.9646 22.3647 19.9042 22.5257 19.8697C23.7065 19.5588 24.941 20.0683 25.5313 21.1045C26.2022 22.3048 25.7818 23.7901 24.5742 24.4895L18.9655 27.7363C18.724 27.8745 18.5988 28.1422 18.6525 28.4099C18.7061 28.6776 18.9208 28.8848 19.1981 28.928L25.2809 29.947C25.3166 29.9556 25.3614 29.9556 25.3972 29.9556C25.7192 29.9556 25.9965 29.7311 26.0591 29.4202C26.1217 29.0662 25.8802 28.7294 25.5134 28.6689L21.2108 27.9436L25.2719 25.5948C27.1057 24.5327 27.7408 22.2875 26.721 20.4828C25.8355 18.9112 23.9749 18.1426 22.1858 18.6176C21.9443 18.678 21.7117 18.7644 21.4881 18.868L14.2156 22.2962V22.2875L12.9007 22.9093V22.9179L11.2637 23.6864C11.1027 23.7641 10.9417 23.8505 10.7896 23.9455C9.59991 24.6881 8.85746 25.9402 8.77695 27.2959L7.9361 27.5205C7.84665 27.3132 7.7572 27.106 7.66775 26.8987C7.55146 26.631 7.26521 26.467 6.97002 26.5015C4.85895 26.7519 2.88206 27.4255 1.07513 28.5135C0.815715 28.6689 0.699428 28.9625 0.78888 29.2475C1.92492 32.9693 3.27565 36.6738 4.81422 40.2488C4.92157 40.4906 5.16309 40.646 5.43144 40.646C5.45828 40.646 5.48512 40.646 5.51195 40.6374C7.62302 40.3869 9.60886 39.7134 11.4068 38.6254C11.6663 38.4699 11.7825 38.1763 11.6931 37.8914C11.6573 37.7705 11.6126 37.6409 11.5768 37.52L14.0457 36.6393L29.6282 38.4699C29.834 38.4958 30.0487 38.5045 30.2544 38.5045C31.4441 38.5045 32.6159 38.1159 33.5462 37.3905L45.2019 28.3667C45.2108 28.3581 45.2197 28.3581 45.2197 28.3494C46.3289 27.4946 46.803 26.0784 46.4273 24.7572C46.3021 24.3254 46.0964 23.9196 45.8101 23.5655C44.9782 22.5293 43.6185 22.0716 42.3483 22.2962" fill="#F5FDFC"/>
<path d="M22.1866 7.06356C22.1866 7.12401 22.1687 7.18445 22.1419 7.25354C22.1151 7.32262 22.0703 7.3917 22.0077 7.45215C21.9451 7.51259 21.8646 7.57304 21.7751 7.61621C21.6857 7.65939 21.5694 7.67666 21.4442 7.67666C21.3458 7.67666 21.2563 7.66803 21.1848 7.65075C21.1132 7.63348 21.0327 7.60758 20.9701 7.5644C20.9075 7.52123 20.8448 7.46942 20.7912 7.40897C20.7464 7.34852 20.7017 7.28808 20.6659 7.21036C20.6302 7.13264 20.6033 7.06356 20.5854 6.97721C20.5675 6.89086 20.5586 6.8045 20.5586 6.71815C20.5586 6.57135 20.5765 6.43319 20.6212 6.32093C20.6659 6.20004 20.7286 6.10505 20.8091 6.0187C20.8896 5.93235 20.979 5.8719 21.0864 5.82873C21.1937 5.78555 21.31 5.75964 21.4263 5.75964C21.5784 5.75964 21.7036 5.78555 21.8199 5.846C21.9362 5.90644 22.0256 5.98416 22.0882 6.07051C22.1508 6.15686 22.1777 6.24322 22.1777 6.32093C22.1777 6.36411 22.1598 6.39865 22.133 6.43319C22.1061 6.46773 22.0703 6.485 22.0256 6.485C21.9809 6.485 21.9451 6.47637 21.9183 6.45046C21.8914 6.42455 21.8646 6.39001 21.8378 6.32957C21.793 6.23458 21.7304 6.1655 21.6678 6.12232C21.6052 6.07915 21.5247 6.05324 21.4263 6.05324C21.2742 6.05324 21.149 6.11369 21.0595 6.22594C20.9701 6.34684 20.9253 6.51091 20.9253 6.72679C20.9253 6.87359 20.9432 6.99448 20.988 7.08947C21.0327 7.18445 21.0864 7.25353 21.1579 7.30535C21.2295 7.34852 21.3189 7.37443 21.4173 7.37443C21.5247 7.37443 21.6141 7.34852 21.6857 7.29671C21.7573 7.2449 21.8109 7.16718 21.8557 7.06356C21.8735 7.01175 21.8914 6.97721 21.9183 6.94267C21.9451 6.90813 21.9809 6.89949 22.0346 6.89949C22.0793 6.89949 22.1151 6.91676 22.1508 6.94267C22.1687 6.97721 22.1866 7.02038 22.1866 7.06356Z" fill="#F5FDFC"/>
<path d="M23.3137 5.76843C23.5015 5.76843 23.6625 5.81161 23.7967 5.88933C23.9309 5.96704 24.0382 6.0793 24.1009 6.2261C24.1635 6.3729 24.2082 6.53697 24.2082 6.73558C24.2082 6.88237 24.1903 7.0119 24.1545 7.12416C24.1187 7.23642 24.0561 7.34004 23.9846 7.42639C23.913 7.51275 23.8146 7.58183 23.7073 7.625C23.5999 7.66818 23.4657 7.69408 23.3226 7.69408C23.1795 7.69408 23.0543 7.66818 22.938 7.625C22.8217 7.58183 22.7322 7.51275 22.6517 7.42639C22.5712 7.34004 22.5176 7.23642 22.4818 7.11553C22.446 6.99463 22.4281 6.8651 22.4281 6.72694C22.4281 6.58014 22.446 6.45061 22.4907 6.33836C22.5354 6.2261 22.5891 6.12248 22.6696 6.03612C22.7501 5.94977 22.8396 5.88933 22.9469 5.84615C23.0543 5.80297 23.1795 5.76843 23.3137 5.76843ZM23.8414 6.71831C23.8414 6.58014 23.8236 6.46788 23.7788 6.36426C23.7341 6.26064 23.6715 6.19156 23.591 6.13975C23.5105 6.08794 23.421 6.06203 23.3137 6.06203C23.2421 6.06203 23.1706 6.0793 23.1079 6.10521C23.0453 6.13111 22.9916 6.17429 22.9469 6.2261C22.9022 6.27791 22.8664 6.34699 22.8396 6.43334C22.8127 6.5197 22.8038 6.61468 22.8038 6.71831C22.8038 6.82193 22.8127 6.91692 22.8396 7.00327C22.8664 7.08962 22.9022 7.1587 22.9469 7.21915C22.9916 7.27096 23.0453 7.31414 23.1079 7.34868C23.1706 7.37458 23.2332 7.39185 23.3137 7.39185C23.4121 7.39185 23.4926 7.36595 23.5731 7.32277C23.6536 7.27959 23.7162 7.20188 23.7609 7.09825C23.8057 6.99463 23.8414 6.8651 23.8414 6.71831Z" fill="#F5FDFC"/>
<path d="M25.0132 5.99279L25.7199 7.08947V5.98416C25.7199 5.91508 25.7378 5.85463 25.7646 5.82009C25.7915 5.78555 25.8362 5.76828 25.8899 5.76828C25.9435 5.76828 25.9883 5.78555 26.0151 5.82009C26.0419 5.85463 26.0598 5.90644 26.0598 5.98416V7.44351C26.0598 7.60758 25.9972 7.6853 25.863 7.6853C25.8273 7.6853 25.8004 7.67666 25.7736 7.66803C25.7468 7.65939 25.7199 7.64212 25.702 7.62485C25.6841 7.60758 25.6573 7.58167 25.6394 7.54713C25.6215 7.51259 25.6036 7.48669 25.5768 7.46078L24.888 6.38138V7.46942C24.888 7.5385 24.8701 7.59031 24.8433 7.63348C24.8075 7.66803 24.7717 7.6853 24.7181 7.6853C24.6644 7.6853 24.6197 7.66803 24.5928 7.63348C24.557 7.59894 24.5481 7.54713 24.5481 7.46942V6.03597C24.5481 5.97552 24.557 5.92371 24.566 5.88917C24.5839 5.85463 24.6107 5.82009 24.6465 5.79418C24.6823 5.76828 24.7181 5.75964 24.7628 5.75964C24.7986 5.75964 24.8254 5.76828 24.8522 5.77691C24.8791 5.78555 24.897 5.80282 24.9148 5.82009C24.9327 5.83736 24.9506 5.86327 24.9685 5.88917C24.9775 5.92371 24.9954 5.95825 25.0132 5.99279Z" fill="#F5FDFC"/>
<path d="M27.6522 6.10506H27.2496V7.45215C27.2496 7.52987 27.2318 7.59032 27.196 7.62486C27.1602 7.6594 27.1155 7.6853 27.0618 7.6853C27.0081 7.6853 26.9634 7.66803 26.9276 7.62486C26.8918 7.58168 26.874 7.52987 26.874 7.45215V6.10506H26.4714C26.4088 6.10506 26.3641 6.08779 26.3283 6.06188C26.3015 6.03598 26.2836 5.9928 26.2836 5.94962C26.2836 5.89781 26.3015 5.86327 26.3283 5.83737C26.3551 5.81146 26.4088 5.79419 26.4714 5.79419H27.6432C27.7059 5.79419 27.7506 5.81146 27.7864 5.83737C27.8221 5.86327 27.8311 5.90645 27.8311 5.94962C27.8311 5.9928 27.8132 6.03598 27.7864 6.06188C27.7685 6.09642 27.7237 6.10506 27.6522 6.10506Z" fill="#F5FDFC"/>
<path d="M29.0744 7.44361L28.985 7.21045H28.2425L28.1531 7.45224C28.1173 7.54723 28.0905 7.60767 28.0636 7.64222C28.0368 7.67676 28.001 7.69403 27.9473 7.69403C27.9026 7.69403 27.8579 7.67676 27.8221 7.64222C27.7863 7.60767 27.7684 7.5645 27.7684 7.52132C27.7684 7.49542 27.7684 7.46951 27.7774 7.44361C27.7863 7.4177 27.7953 7.38316 27.8221 7.33135L28.2873 6.13105C28.2962 6.09651 28.3141 6.05334 28.332 6.01016C28.3499 5.95835 28.3678 5.92381 28.3946 5.88927C28.4125 5.85473 28.4393 5.82882 28.4751 5.81155C28.5109 5.79428 28.5556 5.78564 28.6003 5.78564C28.654 5.78564 28.6987 5.79428 28.7256 5.81155C28.7524 5.82882 28.7882 5.85473 28.8061 5.88927C28.824 5.92381 28.8419 5.94971 28.8597 5.99289C28.8776 6.03607 28.8955 6.07924 28.9134 6.13969L29.3875 7.33998C29.4233 7.43497 29.4412 7.49542 29.4412 7.53859C29.4412 7.58177 29.4233 7.62494 29.3875 7.65949C29.3517 7.69403 29.307 7.7113 29.2623 7.7113C29.2354 7.7113 29.2086 7.70266 29.1907 7.69403C29.1728 7.68539 29.1549 7.66812 29.137 7.65085C29.1192 7.63358 29.1102 7.60767 29.0923 7.5645C29.1013 7.50405 29.0834 7.46951 29.0744 7.44361ZM28.3409 6.92549H28.8866L28.6093 6.15696L28.3409 6.92549Z" fill="#F5FDFC"/>
<path d="M31.2302 7.06371C31.2302 7.12416 31.2123 7.18461 31.1855 7.25369C31.1587 7.32277 31.1139 7.39185 31.0513 7.4523C30.9887 7.52138 30.9082 7.57319 30.8187 7.61637C30.7293 7.65954 30.613 7.68545 30.4788 7.68545C30.3804 7.68545 30.291 7.67681 30.2194 7.65954C30.1389 7.64227 30.0674 7.61637 30.0047 7.57319C29.9421 7.53002 29.8795 7.4782 29.8258 7.41776C29.7811 7.35731 29.7364 7.29686 29.7006 7.21915C29.6648 7.14143 29.638 7.07235 29.6201 6.986C29.6022 6.90828 29.5933 6.81329 29.5933 6.72694C29.5933 6.58014 29.6112 6.44198 29.6559 6.32972C29.7006 6.20883 29.7632 6.11384 29.8437 6.02749C29.9242 5.94114 30.0137 5.88069 30.121 5.83751C30.2284 5.79434 30.3447 5.76843 30.4609 5.76843C30.613 5.76843 30.7382 5.79434 30.8545 5.85478C30.9708 5.91523 31.0603 5.99295 31.1229 6.0793C31.1855 6.16565 31.2123 6.252 31.2123 6.32972C31.2123 6.3729 31.1944 6.40744 31.1676 6.44198C31.1408 6.47652 31.105 6.49379 31.0603 6.49379C31.0155 6.49379 30.9798 6.48516 30.9529 6.45925C30.9261 6.43334 30.8993 6.3988 30.8724 6.33836C30.8277 6.24337 30.7651 6.17429 30.7025 6.13111C30.6398 6.08794 30.5593 6.06203 30.4609 6.06203C30.3089 6.06203 30.1836 6.12248 30.0942 6.23473C30.0047 6.35563 29.96 6.5197 29.96 6.73558C29.96 6.88237 29.9779 7.00327 30.0226 7.09825C30.0674 7.19324 30.121 7.26232 30.1926 7.31414C30.2641 7.36595 30.3536 7.38322 30.452 7.38322C30.5593 7.38322 30.6488 7.35731 30.7204 7.3055C30.7919 7.25369 30.8456 7.17597 30.8903 7.07235C30.9082 7.02054 30.9261 6.986 30.9529 6.95146C30.9798 6.91692 31.0155 6.90828 31.0692 6.90828C31.1139 6.90828 31.1497 6.92555 31.1855 6.95146C31.2123 6.97736 31.2302 7.02054 31.2302 7.06371Z" fill="#F5FDFC"/>
<path d="M32.7419 6.10506H32.3394V7.45215C32.3394 7.52987 32.3215 7.59032 32.2857 7.62486C32.2499 7.6594 32.2052 7.6853 32.1515 7.6853C32.0979 7.6853 32.0531 7.66803 32.0173 7.62486C31.9816 7.58168 31.9637 7.52987 31.9637 7.45215V6.10506H31.5611C31.4985 6.10506 31.4538 6.08779 31.418 6.06188C31.3912 6.03598 31.3733 5.9928 31.3733 5.94962C31.3733 5.89781 31.3912 5.86327 31.418 5.83737C31.4449 5.81146 31.4985 5.79419 31.5611 5.79419H32.733C32.7956 5.79419 32.8403 5.81146 32.8761 5.83737C32.9119 5.86327 32.9208 5.90645 32.9208 5.94962C32.9208 5.9928 32.9029 6.03598 32.8761 6.06188C32.8582 6.09642 32.8135 6.10506 32.7419 6.10506Z" fill="#F5FDFC"/>
<path d="M33.5202 5.99279V7.33989H34.2716C34.3342 7.33989 34.3789 7.35716 34.4058 7.38306C34.4326 7.40897 34.4505 7.45214 34.4505 7.49532C34.4505 7.5385 34.4326 7.58167 34.4058 7.60758C34.3789 7.63348 34.3253 7.65075 34.2716 7.65075H33.3771C33.2966 7.65075 33.2429 7.63348 33.2071 7.59894C33.1713 7.5644 33.1534 7.50396 33.1534 7.42624V5.99279C33.1534 5.91508 33.1713 5.86327 33.2071 5.82009C33.2429 5.78555 33.2876 5.75964 33.3413 5.75964C33.395 5.75964 33.4397 5.77691 33.4755 5.82009C33.5023 5.86327 33.5202 5.91508 33.5202 5.99279Z" fill="#F5FDFC"/>
<path d="M35.8996 6.08779H35.0677V6.54545H35.837C35.8906 6.54545 35.9354 6.55409 35.9622 6.57999C35.989 6.6059 36.0069 6.64044 36.0069 6.68362C36.0069 6.72679 35.989 6.76133 35.9622 6.78724C35.9354 6.81315 35.8906 6.83042 35.837 6.83042H35.0677V7.35716H35.9264C35.989 7.35716 36.0248 7.37444 36.0606 7.40034C36.0964 7.42625 36.1053 7.46079 36.1053 7.5126C36.1053 7.55578 36.0874 7.59032 36.0606 7.61622C36.0338 7.64213 35.989 7.6594 35.9264 7.6594H34.9246C34.8441 7.6594 34.7904 7.64213 34.7546 7.60759C34.7188 7.57305 34.7009 7.5126 34.7009 7.43488V6.02734C34.7009 5.97553 34.7099 5.93235 34.7278 5.89781C34.7457 5.86327 34.7725 5.83737 34.7993 5.8201C34.8351 5.80282 34.8798 5.79419 34.9246 5.79419H35.8996C35.9622 5.79419 35.998 5.81146 36.0338 5.83737C36.0695 5.86327 36.0785 5.89781 36.0785 5.94099C36.0785 5.98416 36.0606 6.01871 36.0338 6.04461C36.0069 6.07052 35.9533 6.08779 35.8996 6.08779Z" fill="#F5FDFC"/>
<path d="M37.7781 7.09825C37.7781 7.21051 37.7513 7.31414 37.6887 7.40049C37.635 7.48684 37.5456 7.55592 37.4382 7.60773C37.3309 7.65954 37.2056 7.68545 37.0536 7.68545C36.8747 7.68545 36.7226 7.65091 36.6063 7.58183C36.5258 7.53002 36.4542 7.46957 36.4006 7.38322C36.3469 7.29686 36.3201 7.21915 36.3201 7.14143C36.3201 7.09825 36.338 7.05508 36.3648 7.02054C36.3916 6.986 36.4364 6.96873 36.4811 6.96873C36.5169 6.96873 36.5526 6.97736 36.5795 7.00327C36.6063 7.02917 36.6332 7.06371 36.651 7.11553C36.6779 7.17597 36.6958 7.22778 36.7226 7.26232C36.7494 7.3055 36.7852 7.33141 36.8389 7.35731C36.8926 7.38322 36.9552 7.39185 37.0357 7.39185C37.143 7.39185 37.2325 7.36595 37.304 7.31414C37.3756 7.26232 37.4024 7.19324 37.4024 7.12416C37.4024 7.06371 37.3846 7.0119 37.3488 6.97736C37.313 6.94282 37.2683 6.90828 37.2056 6.89101C37.143 6.87374 37.0715 6.84783 36.9731 6.83056C36.8389 6.79602 36.7316 6.76148 36.6421 6.71831C36.5526 6.67513 36.4811 6.62332 36.4274 6.5456C36.3737 6.46788 36.3469 6.38153 36.3469 6.27791C36.3469 6.17429 36.3737 6.08794 36.4274 6.01022C36.4811 5.9325 36.5616 5.87205 36.6689 5.82888C36.7763 5.7857 36.8926 5.76843 37.0357 5.76843C37.152 5.76843 37.2414 5.7857 37.3219 5.81161C37.4024 5.83751 37.474 5.88069 37.5277 5.92387C37.5813 5.96704 37.6171 6.01885 37.644 6.07067C37.6708 6.12248 37.6797 6.17429 37.6797 6.21746C37.6797 6.26064 37.6619 6.30382 37.635 6.33836C37.6082 6.3729 37.5635 6.39017 37.5187 6.39017C37.474 6.39017 37.4472 6.38153 37.4203 6.35563C37.3935 6.32972 37.3756 6.29518 37.3488 6.252C37.313 6.18292 37.2772 6.13111 37.2325 6.08794C37.1878 6.04476 37.1073 6.02749 37.0089 6.02749C36.9105 6.02749 36.8389 6.04476 36.7763 6.08794C36.7137 6.13111 36.6868 6.18292 36.6868 6.24337C36.6868 6.27791 36.6958 6.31245 36.7137 6.33836C36.7316 6.36426 36.7584 6.39017 36.7942 6.40744C36.8299 6.42471 36.8657 6.44198 36.9015 6.45061C36.9373 6.45925 36.9999 6.47652 37.0804 6.50243C37.1878 6.52833 37.2772 6.55424 37.3577 6.58014C37.4382 6.60605 37.5098 6.64922 37.5724 6.68376C37.635 6.72694 37.6797 6.77875 37.7066 6.84783C37.7692 6.92555 37.7781 7.00327 37.7781 7.09825Z" fill="#F5FDFC"/>
<path d="M39.4777 7.09825C39.4777 7.21051 39.4509 7.31414 39.3883 7.40049C39.3257 7.48684 39.2451 7.55592 39.1378 7.60773C39.0305 7.65954 38.9052 7.68545 38.7532 7.68545C38.5743 7.68545 38.4222 7.65091 38.3059 7.58183C38.2254 7.53002 38.1538 7.46957 38.1002 7.38322C38.0465 7.29686 38.0197 7.21915 38.0197 7.14143C38.0197 7.09825 38.0375 7.05508 38.0644 7.02054C38.0912 6.986 38.1359 6.96873 38.1807 6.96873C38.2164 6.96873 38.2522 6.97736 38.2791 7.00327C38.3059 7.02917 38.3327 7.06371 38.3506 7.11553C38.3775 7.17597 38.3954 7.22778 38.4222 7.26232C38.449 7.29686 38.4848 7.33141 38.5385 7.35731C38.5832 7.38322 38.6548 7.39185 38.7353 7.39185C38.8426 7.39185 38.9321 7.36595 39.0036 7.31414C39.0752 7.26232 39.102 7.19324 39.102 7.12416C39.102 7.06371 39.0841 7.0119 39.0484 6.97736C39.0126 6.94282 38.9678 6.90828 38.9052 6.89101C38.8426 6.87374 38.7711 6.84783 38.6727 6.83056C38.5385 6.79602 38.4311 6.76148 38.3417 6.71831C38.2522 6.67513 38.1807 6.62332 38.127 6.5456C38.0733 6.47652 38.0465 6.38153 38.0465 6.27791C38.0465 6.17429 38.0733 6.08794 38.127 6.01022C38.1807 5.9325 38.2612 5.87205 38.3685 5.82888C38.4759 5.7857 38.5921 5.76843 38.7353 5.76843C38.8516 5.76843 38.941 5.7857 39.0215 5.81161C39.102 5.83751 39.1736 5.88069 39.2273 5.92387C39.2809 5.96704 39.3167 6.01885 39.3435 6.07067C39.3704 6.12248 39.3793 6.17429 39.3793 6.21746C39.3793 6.26064 39.3614 6.30382 39.3346 6.33836C39.3078 6.3729 39.263 6.39017 39.2183 6.39017C39.1736 6.39017 39.1467 6.38153 39.1199 6.35563C39.0931 6.32972 39.0752 6.29518 39.0484 6.252C39.0126 6.18292 38.9768 6.13111 38.9321 6.08794C38.8873 6.04476 38.8068 6.02749 38.7084 6.02749C38.61 6.02749 38.5385 6.04476 38.4759 6.08794C38.4132 6.13111 38.3864 6.18292 38.3864 6.24337C38.3864 6.27791 38.3954 6.31245 38.4132 6.33836C38.4311 6.36426 38.458 6.39017 38.4938 6.40744C38.5295 6.42471 38.5653 6.44198 38.6011 6.45061C38.6369 6.45925 38.6995 6.47652 38.78 6.50243C38.8873 6.52833 38.9768 6.55424 39.0573 6.58014C39.1378 6.60605 39.2094 6.64922 39.272 6.68376C39.3346 6.72694 39.3793 6.77875 39.4062 6.84783C39.433 6.91692 39.4777 7.00327 39.4777 7.09825Z" fill="#F5FDFC"/>
</g>
<defs>
<clipPath id="clip0_156_24930">
<rect width="45.7995" height="41" fill="white" transform="translate(0.736084)"/>
</clipPath>
</defs>
</svg>
