<svg width="46" height="45" viewBox="0 0 46 45" fill="none" xmlns="http://www.w3.org/2000/svg">
<path d="M23.0199 4.39453C21.6668 4.39453 20.5719 5.47559 20.5719 6.81152C20.5719 8.14746 21.6668 9.22852 23.0199 9.22852C24.373 9.22852 25.4679 8.14746 25.4679 6.81152C25.4679 5.47559 24.373 4.39453 23.0199 4.39453ZM23.0199 7.91016C22.4057 7.91016 21.9072 7.41797 21.9072 6.81152C21.9072 6.20508 22.4057 5.71289 23.0199 5.71289C23.6341 5.71289 24.1327 6.20508 24.1327 6.81152C24.1327 7.41797 23.6341 7.91016 23.0199 7.91016Z" fill="#F5FDFC"/>
<path d="M34.5923 29.8827H29.9189V27.1317C32.625 25.0839 34.3698 21.8583 34.3698 18.2372V16.2597H35.4647C35.8475 16.2597 36.1591 15.952 36.1502 15.5829C36.1324 14.9413 35.4914 14.247 34.3698 13.6142V11.2147C34.3698 9.00868 33.72 6.95204 32.6072 5.2206C32.3936 4.88661 31.9307 4.78993 31.6191 5.03603C31.3521 5.24697 31.2808 5.6249 31.4678 5.90615C32.4648 7.44423 33.0434 9.26357 33.0434 11.2235V12.9901C32.9811 12.9638 32.9099 12.9374 32.8476 12.911C31.085 12.2255 27.9604 11.4257 23.0199 11.4257C18.0793 11.4257 14.9548 12.2255 13.21 12.9022C13.1388 12.9286 13.0765 12.955 13.0142 12.9813V11.2147C13.0053 5.75673 17.5007 1.31825 23.0199 1.31825C25.5035 1.31825 27.7735 2.21474 29.5272 3.70009C29.7586 3.90224 30.1147 3.92861 30.3639 3.75283C30.72 3.49794 30.7378 2.98818 30.4174 2.71572C28.3343 0.940325 25.5836 -0.096784 22.5926 0.0086847C16.4681 0.228411 11.67 5.28212 11.67 11.329V13.6054C10.5484 14.2382 9.90742 14.9325 9.88961 15.5741C9.88071 15.952 10.1923 16.2509 10.5751 16.2509H11.6522C11.67 16.2509 11.67 16.2509 11.67 16.2509V18.2284C11.67 21.8495 13.4148 25.0663 16.1209 27.1229V29.8827H11.4474C8.62554 29.8827 6.32886 32.1503 6.32886 34.9364C6.32886 34.9364 6.32886 34.9364 6.32886 34.9452V38.4345C6.32886 38.7509 6.5425 39.0321 6.84517 39.1024C7.28136 39.1991 7.66414 38.8739 7.66414 38.4608V34.9452C7.66414 32.8886 9.3644 31.2099 11.4474 31.2099H16.5838L19.0853 32.8534C19.0942 32.8622 19.1031 32.8622 19.112 32.871C19.1209 32.8798 19.1387 32.8886 19.1476 32.8974C19.1654 32.9061 19.1832 32.9149 19.201 32.9237C19.2099 32.9325 19.2277 32.9325 19.2366 32.9413C19.2544 32.9501 19.2811 32.9501 19.3078 32.9589C19.3167 32.9589 19.3345 32.9677 19.3434 32.9677C19.379 32.9765 19.4057 32.9765 19.4413 32.9765C19.4413 32.9765 19.4413 32.9765 19.4502 32.9765C19.4858 32.9765 19.5215 32.9765 19.5571 32.9677C19.5749 32.9677 19.5927 32.9589 19.6105 32.9589L23.011 32.1239L26.4115 32.9589C26.4293 32.9589 26.4471 32.9677 26.4649 32.9677C26.5005 32.9765 26.5361 32.9765 26.5717 32.9765C26.5717 32.9765 26.5717 32.9765 26.5806 32.9765C26.6163 32.9765 26.643 32.9765 26.6786 32.9677C26.6875 32.9677 26.7053 32.9589 26.7142 32.9589C26.7409 32.9501 26.7587 32.9501 26.7854 32.9413C26.7943 32.9413 26.8121 32.9325 26.821 32.9237C26.8388 32.9149 26.8566 32.9061 26.8744 32.8974C26.8922 32.8886 26.9011 32.8798 26.91 32.871C26.9189 32.8622 26.9278 32.8622 26.9367 32.8534L29.4382 31.2099H34.5923C36.6843 31.2099 38.3756 32.8798 38.3756 34.9452V43.6815H34.3787V38.9794C34.3787 38.9618 34.3787 38.9354 34.3787 38.9179C34.3787 38.9091 34.3787 38.9003 34.3787 38.8915C34.3787 38.8827 34.3787 38.8651 34.3698 38.8563C34.3698 38.8475 34.3609 38.8388 34.3609 38.8212C34.3609 38.8124 34.352 38.8036 34.352 38.786C34.352 38.7772 34.3431 38.7684 34.3431 38.7597C34.3431 38.7509 34.3342 38.7421 34.3342 38.7333C34.3342 38.7245 34.3253 38.7157 34.3253 38.7069C34.3164 38.6981 34.3164 38.6893 34.3075 38.6718C34.2986 38.663 34.2986 38.6542 34.2897 38.6454C34.2808 38.6366 34.2808 38.6278 34.2719 38.619C34.263 38.6102 34.263 38.6015 34.2541 38.5927C34.2452 38.5839 34.2452 38.5751 34.2363 38.5663C34.2274 38.5487 34.2096 38.5399 34.2007 38.5224L34.1918 38.5136L31.5212 35.8768C31.5212 35.8768 31.5123 35.8768 31.5123 35.8681C31.4945 35.8593 31.4856 35.8417 31.4678 35.8329C31.4589 35.8241 31.45 35.8241 31.4411 35.8153C31.4322 35.8065 31.4233 35.7977 31.4144 35.7977C31.4055 35.789 31.3966 35.789 31.3877 35.7802C31.3788 35.7714 31.3699 35.7714 31.361 35.7626C31.3521 35.7538 31.3432 35.7538 31.3343 35.745C31.3254 35.7362 31.3165 35.7362 31.3076 35.7274C31.2986 35.7274 31.2897 35.7186 31.2808 35.7186C31.2719 35.7186 31.2541 35.7099 31.2452 35.7099C31.2363 35.7099 31.2274 35.7011 31.2185 35.7011C31.2096 35.7011 31.1918 35.6923 31.1829 35.6923C31.174 35.6923 31.1651 35.6923 31.1562 35.6835C31.1473 35.6835 31.1295 35.6835 31.1206 35.6747C31.1028 35.6747 31.085 35.6747 31.0672 35.6747C31.0583 35.6747 31.0583 35.6747 31.0494 35.6747H15.0082H14.9993C14.9815 35.6747 14.9637 35.6747 14.9459 35.6747C14.937 35.6747 14.9281 35.6747 14.9103 35.6835C14.9014 35.6835 14.8925 35.6835 14.8747 35.6923C14.8658 35.6923 14.848 35.7011 14.8391 35.7011C14.8302 35.7011 14.8213 35.7011 14.8124 35.7099C14.8035 35.7099 14.7856 35.7186 14.7767 35.7186C14.7678 35.7186 14.7589 35.7274 14.75 35.7274C14.7411 35.7362 14.7322 35.7362 14.7144 35.745C14.7055 35.745 14.6966 35.7538 14.6877 35.7538C14.6788 35.7626 14.6699 35.7626 14.661 35.7714C14.6521 35.7802 14.6432 35.7802 14.6343 35.789C14.6254 35.7977 14.6165 35.8065 14.5987 35.8153C14.5898 35.8241 14.5898 35.8241 14.5809 35.8329C14.5631 35.8505 14.5453 35.8593 14.5275 35.8768L11.8569 38.5136C11.8391 38.5311 11.8302 38.5487 11.8124 38.5663C11.8035 38.5751 11.8035 38.5839 11.7946 38.5839C11.7857 38.5927 11.7768 38.6015 11.7679 38.6102C11.759 38.619 11.759 38.6278 11.7501 38.6366C11.7412 38.6454 11.7412 38.6542 11.7323 38.663C11.7234 38.6718 11.7234 38.6806 11.7145 38.6893C11.7056 38.6981 11.7056 38.7069 11.6967 38.7157C11.6967 38.7245 11.6878 38.7333 11.6878 38.7421C11.6878 38.7509 11.6789 38.7597 11.6789 38.7772C11.6789 38.786 11.67 38.7948 11.67 38.8124C11.67 38.8212 11.6611 38.83 11.6611 38.8475C11.6611 38.8563 11.6611 38.8739 11.6522 38.8827C11.6522 38.8915 11.6522 38.9003 11.6522 38.9091C11.6522 38.9267 11.6522 38.953 11.6522 38.9706V43.6815H7.66414V41.1151C7.66414 40.7987 7.45049 40.5175 7.13893 40.4472C6.70274 40.3593 6.32886 40.6845 6.32886 41.0888V44.3319C6.32886 44.3319 6.32886 44.3319 6.32886 44.3407C6.32886 44.6395 6.5336 44.8944 6.80956 44.9735C6.87187 44.9911 6.93419 44.9999 6.9965 44.9999H39.0433C39.4083 44.9999 39.7109 44.7011 39.7109 44.3407V34.9364C39.7109 32.1503 37.4142 29.8827 34.5923 29.8827ZM22.3523 30.911L19.5838 31.5966L17.4562 30.1991V28.0194C18.9161 28.8368 20.5808 29.3378 22.3433 29.4345L22.3523 30.911C22.3523 30.9022 22.3523 30.911 22.3523 30.911ZM28.5836 30.1903L26.456 31.5878L23.6875 30.9022V29.4257C25.459 29.3202 27.1148 28.8192 28.5747 28.0106V30.1903H28.5836ZM23.1534 28.1249C23.1089 28.1161 23.0644 28.1073 23.0199 28.1073C22.9754 28.1073 22.9309 28.1161 22.8864 28.1249C17.4295 28.0546 13.0053 23.6425 13.0053 18.2372V16.2597H26.5183C26.8833 16.2597 27.186 15.9608 27.186 15.6005C27.186 15.2401 26.8833 14.9413 26.5183 14.9413H12.0439C12.0439 14.9413 12.0439 14.9413 12.0439 14.9325C12.4979 14.6425 13.1388 14.3173 14.0112 14.0097C15.6313 13.4296 18.5155 12.744 23.0199 12.744C27.5242 12.744 30.4085 13.4296 32.0286 14.0097C32.901 14.3173 33.5508 14.6513 33.9959 14.9325V14.9413H29.2156C28.8506 14.9413 28.548 15.2401 28.548 15.6005C28.548 15.9608 28.8506 16.2597 29.2156 16.2597H33.0345V18.2372C33.0345 23.6425 28.6192 28.0546 23.1534 28.1249ZM15.2842 37.0018H30.7556L32.082 38.3114V38.3202H13.9578C13.9578 38.3202 13.9578 38.3202 13.9578 38.3114L15.2842 37.0018ZM33.0345 43.6815H13.0053V39.6386H33.0256V43.6815H33.0345Z" fill="#F5FDFC"/>
</svg>
