<svg width="50" height="50" viewBox="0 0 50 50" fill="none" xmlns="http://www.w3.org/2000/svg">
<path fill-rule="evenodd" clip-rule="evenodd" d="M24.5 44C34.7173 44 43 35.7173 43 25.5C43 15.2827 34.7173 7 24.5 7C14.2827 7 6 15.2827 6 25.5C6 35.7173 14.2827 44 24.5 44ZM32 22.25H26.3333V18.3106C26.3333 17.3787 27.0927 16.625 28.0333 16.625H32V11H28.0409C25.9386 11 24.1838 11.7687 22.7784 13.3119C21.3731 14.8512 20.6667 17.6675 20.6667 19.8969V22.25H15V27.875H20.6667V41H26.3333V27.875H32V22.25Z" fill="#F5FDFC"/>
</svg>
