<svg width="50" height="50" viewBox="0 0 50 50" fill="none" xmlns="http://www.w3.org/2000/svg">
<path d="M37.5 6.25H12.5C8.95833 6.25 6.25 8.95833 6.25 12.5V37.5C6.25 41.0417 8.95833 43.75 12.5 43.75H37.5C41.0417 43.75 43.75 41.0417 43.75 37.5V12.5C43.75 8.95833 41.0417 6.25 37.5 6.25ZM25 18.75C28.5417 18.75 31.25 21.4583 31.25 25C31.25 28.5417 28.5417 31.25 25 31.25C21.4583 31.25 18.75 28.5417 18.75 25C18.75 21.4583 21.4583 18.75 25 18.75ZM32.9167 14.5833C32.9167 13.125 34.1667 12.0833 35.4167 12.0833C36.6667 12.0833 37.9167 13.3333 37.9167 14.5833C37.9167 15.8333 36.875 17.0833 35.4167 17.0833C33.9583 17.0833 32.9167 16.0417 32.9167 14.5833ZM37.5 39.5833H12.5C11.25 39.5833 10.4167 38.75 10.4167 37.5V25H14.5833C14.5833 30.8333 19.1667 35.4167 25 35.4167C30.8333 35.4167 35.4167 30.8333 35.4167 25H39.5833V37.5C39.5833 38.75 38.75 39.5833 37.5 39.5833Z" fill="#F5FDFC"/>
</svg>
