<svg width="47" height="46" viewBox="0 0 47 46" fill="none" xmlns="http://www.w3.org/2000/svg">
<g clip-path="url(#clip0_156_24928)">
<path d="M3.96712 23.9523C4.02171 23.9523 4.06721 23.9433 4.12181 23.9344C4.4858 23.8535 4.71329 23.4851 4.6314 23.1258C4.5677 22.8562 4.4312 22.2902 4.6223 22.0476C4.75879 21.8769 5.11368 21.7691 5.62326 21.7512C7.6525 21.6793 8.27128 20.7539 8.87186 19.8644C9.19035 19.3883 9.52704 18.8851 10.1367 18.4269C10.7373 17.9687 10.9921 17.9597 11.0285 17.9597C11.0649 17.9957 11.3288 18.3371 11.2378 19.8195C11.1832 20.6012 11.3379 21.1672 11.7019 21.5715C12.2115 22.1285 12.9576 22.1554 13.5582 22.1734C13.8312 22.1824 14.0769 22.1914 14.268 22.2453C14.8504 22.407 15.3599 22.3531 15.7694 22.3172C16.0242 22.2902 16.279 22.2633 16.3336 22.3261C16.6066 22.6226 16.916 22.7664 17.2618 22.7574C17.9079 22.7394 18.3447 22.2183 18.9998 21.4187C19.0635 21.3469 19.1272 21.275 19.1909 21.1941C19.2273 21.1492 19.2546 21.1312 19.2637 21.1133C19.3547 21.1312 19.564 21.257 19.7096 21.3469C20.2101 21.6523 20.9745 22.1105 21.9299 21.7062C22.9764 21.266 23.2494 20.9336 23.759 20.2328C23.941 19.9812 24.1776 19.6668 24.5234 19.2535C25.1421 18.5258 26.0339 18.3101 26.407 18.4808C26.4616 18.5078 26.6436 18.5887 26.5617 19.0738C26.4434 19.7656 26.5799 20.2957 26.9621 20.6281C27.6355 21.2121 28.6819 20.8976 29.4463 20.664C29.6192 20.6101 29.8194 20.5472 29.9104 20.5383C29.9741 20.5293 30.1743 20.5832 30.3108 20.6101C30.975 20.7719 32.3491 21.1043 33.0316 19.1816C33.4957 17.8789 33.8324 17.834 34.8333 17.6902C34.9425 17.6722 35.0517 17.6543 35.1609 17.6363C37.3812 17.2859 37.7998 15.8484 38.1365 14.6894C38.2275 14.366 38.3185 14.0515 38.4459 13.764C38.6461 13.2969 39.0283 13.0633 39.5015 12.7668C40.1111 12.3804 40.8755 11.8953 41.194 10.8261C41.3487 10.314 41.7855 10.0176 42.0221 9.9367C42.013 10.0715 41.9675 10.3051 41.8219 10.6554C41.3123 11.8953 41.2031 12.5871 41.4488 13.1082C41.6672 13.5844 42.1131 13.7281 42.377 13.8179C42.4771 13.8539 42.5772 13.8808 42.6227 13.9168C42.6227 13.9168 42.6227 13.9168 42.6318 13.9258C42.8866 14.2043 43.3142 14.2312 43.5963 13.9797C43.8784 13.7281 43.9057 13.3058 43.6509 13.0273C43.569 12.9375 43.4871 12.8656 43.4052 12.8027C43.1959 12.659 42.9776 12.5871 42.8047 12.5332C42.7683 12.5242 42.7228 12.5062 42.6864 12.4972C42.6864 12.3625 42.741 12.0031 43.0868 11.1676C43.4871 10.1972 43.4871 9.46951 43.0868 8.99334C42.7865 8.64295 42.3224 8.4992 41.8037 8.60701C41.0757 8.75076 40.1839 9.43357 39.8837 10.4488C39.7108 11.0418 39.3104 11.2933 38.7644 11.6347C38.2002 11.9941 37.5632 12.3984 37.1992 13.234C37.0354 13.6023 36.9354 13.9617 36.8262 14.3211C36.5168 15.3812 36.3166 16.091 34.9516 16.3066C34.8424 16.3246 34.7423 16.3426 34.6422 16.3515C33.5321 16.5133 32.4856 16.666 31.7485 18.7324C31.4755 19.5051 31.2844 19.4601 30.6384 19.2984C30.3381 19.2265 30.0378 19.1547 29.7102 19.1996C29.5191 19.2265 29.3007 19.2894 29.0459 19.3703C28.7911 19.4512 28.1359 19.6488 27.8902 19.6039C27.8811 19.55 27.8811 19.4601 27.9084 19.2894C28.0722 18.3461 27.7264 17.5824 26.9803 17.241C25.952 16.7738 24.4142 17.2679 23.4769 18.373C23.0947 18.8222 22.849 19.1637 22.6488 19.4332C22.2302 20.0082 22.1301 20.1429 21.3931 20.4574C21.1201 20.5742 20.8926 20.4664 20.4194 20.1879C19.9553 19.9094 18.9725 19.3254 18.1354 20.3226C18.0717 20.4035 18.008 20.4754 17.9443 20.5562C17.7168 20.8347 17.4347 21.1672 17.2618 21.3289C16.7613 20.8617 16.1334 20.9246 15.6329 20.9695C15.2963 21.0054 14.9687 21.0324 14.632 20.9426C14.2953 20.8527 13.9404 20.8347 13.6037 20.8258C13.2488 20.8168 12.8393 20.7988 12.7119 20.664C12.6664 20.6101 12.5572 20.4394 12.5936 19.9094C12.6664 18.8043 12.6482 17.2859 11.6655 16.7648C10.7191 16.2707 9.64533 17.0883 9.29045 17.3578C8.50787 17.9597 8.07108 18.5976 7.7253 19.1187C7.18841 19.9183 6.88812 20.3586 5.55957 20.4035C4.6041 20.4394 3.92162 20.7179 3.52123 21.2301C2.93885 21.9758 3.17544 22.964 3.28464 23.4312C3.38474 23.7457 3.65773 23.9523 3.96712 23.9523ZM45.4527 19.7387C45.2616 19.5051 45.0705 19.2894 44.8885 19.0828C44.0604 18.1484 43.8147 17.807 44.0513 17.223C44.1059 17.0883 44.1514 16.9535 44.1969 16.8008C44.297 16.4414 44.0786 16.073 43.7146 15.9742C43.3506 15.8754 42.9776 16.091 42.8775 16.4504C42.8502 16.5402 42.8229 16.6301 42.7865 16.7109C42.2041 18.1125 43.0504 19.0558 43.8602 19.9722C44.0331 20.1699 44.2151 20.3676 44.388 20.5832C44.9886 21.3199 45.389 22.5148 45.4436 23.0898C44.0331 22.7304 43.2415 22.0836 43.0959 21.1672L43.0595 20.9246C42.8957 19.8465 42.7228 18.7324 41.7582 18.4898C41.1576 18.3371 40.375 18.5347 39.8655 18.966C39.4196 19.3433 39.2012 19.8734 39.2558 20.4574C39.274 20.6371 39.3013 20.8258 39.3195 21.0324C39.4105 21.7332 39.547 22.7933 39.1557 23.0629C38.1729 23.7277 38.0637 24.7609 37.9545 25.848C37.9272 26.0816 37.909 26.3332 37.8726 26.5847C37.7725 27.3035 38.0364 27.6898 38.273 27.8785C38.8736 28.3636 39.729 28.0851 40.4114 27.8605C40.5661 27.8066 40.7117 27.7617 40.8118 27.7347C41.0575 27.6719 41.4124 28.1031 41.9038 29.0914C42.0494 29.3789 42.2132 29.6304 42.3588 29.8461C42.832 30.5648 43.205 31.1398 42.7865 33.0894C42.6045 33.9429 42.3406 34.2125 42.2496 34.2574C42.1859 34.2125 42.0676 34.0238 42.1404 33.7902C42.4407 32.8199 42.4407 32.0652 42.1222 31.5441C41.9129 31.2117 41.5944 30.9961 41.194 30.9242C40.7845 30.8523 40.5297 30.9062 40.2476 31.1308C40.1748 31.1847 39.9838 31.3375 39.0374 31.4992C37.9636 31.6789 37.7634 31.5082 37.2629 31.1039C37.0354 30.9242 36.7534 30.6906 36.3621 30.466C35.6978 30.0887 35.2155 30.1875 34.9243 30.3402C34.078 30.7894 33.9597 32.0652 33.8415 34.1047C33.8233 34.3922 33.7596 34.5898 33.6686 34.6707C33.4502 34.8414 32.7586 34.7426 32.2035 34.6527C31.5483 34.5539 30.7931 34.4371 30.1106 34.5988C29.1824 34.8055 28.509 34.5719 27.9721 34.3742C27.6537 34.2574 27.3716 34.1586 27.0804 34.1586C26.3706 34.1586 26.1704 34.8414 26.0885 35.1379C26.0612 35.2367 26.0066 35.4254 25.9611 35.4793C25.9247 35.4883 25.8064 35.4883 25.5334 35.3984C24.1503 34.9222 23.3313 35.4344 22.7853 35.7668C22.4941 35.9465 22.3121 36.0543 22.1301 36.0543C21.5114 36.0543 20.0463 35.9015 19.655 34.473C19.2637 33.0445 18.1354 32.9367 17.5257 32.8738C17.462 32.8648 17.3801 32.8558 17.3164 32.8469C17.0707 31.4453 15.5965 31.3734 13.7402 31.2926C12.5117 31.2386 11.9567 31.5621 11.7929 32.4156C11.7838 32.4426 11.7838 32.4785 11.7747 32.5054C11.7474 32.5144 11.7019 32.5324 11.62 32.5594C10.7555 32.775 9.87283 31.6969 9.76363 31.3734C9.58164 30.8164 8.94466 29.9449 6.75163 30.3312C5.52317 30.5469 5.45037 31.7328 5.40487 32.3617C5.39577 32.4515 5.38667 32.5773 5.37757 32.6762C4.5495 32.748 4.16731 33.6015 3.90342 34.2125C3.72142 33.5926 3.35744 32.766 2.23817 32.1551C1.94698 31.9933 1.60119 31.7418 1.58299 31.4004C1.57389 31.2117 1.65579 31.059 1.72859 30.9781C2.22907 30.9871 3.72142 30.9422 4.3402 30.0168C4.6041 29.6304 4.79519 28.9566 4.24011 27.9594C3.95802 27.4652 3.86702 26.9531 3.95802 26.3961C4.01262 26.0277 3.75782 25.6863 3.38474 25.6324C3.01165 25.5785 2.66586 25.8301 2.61126 26.1984C2.48386 27.0429 2.62946 27.8605 3.04805 28.6152C3.22094 28.9207 3.27554 29.1722 3.20274 29.2801C3.01165 29.5676 2.10168 29.6754 1.70129 29.6304C1.06431 29.5676 0.509228 30.1785 0.318135 30.7894C0.199838 31.1578 -0.0549535 32.4426 1.58299 33.341C2.39287 33.7812 2.53846 34.3383 2.67496 34.8773C2.78415 35.3086 2.94795 35.9555 3.64863 36.0902C4.5222 36.2609 4.89529 35.3715 5.14098 34.7875C5.24108 34.5539 5.41397 34.1406 5.54137 34.0238C5.90535 34.0418 6.16015 33.907 6.29664 33.7902C6.69703 33.4578 6.73343 32.9277 6.76073 32.4515C6.80623 31.7957 6.86082 31.6789 6.98822 31.6519C7.98009 31.4812 8.41687 31.634 8.46237 31.7777C8.76266 32.7031 10.2732 34.2754 11.9476 33.8621C12.9485 33.6105 13.0668 32.9637 13.1305 32.6582C13.2124 32.6402 13.3762 32.6312 13.6674 32.6402C14.5319 32.6762 15.2781 32.7211 15.6875 32.8558C15.9514 32.9367 15.9605 32.9996 15.9696 33.1433C16.0697 34.0867 16.9615 34.1765 17.3892 34.2125C17.9534 34.2664 18.19 34.3113 18.3356 34.8234C18.9907 37.2133 21.4022 37.4019 22.1301 37.4019C22.7216 37.4019 23.1584 37.1324 23.5133 36.9078C24.0047 36.6023 24.3232 36.4047 25.0875 36.6652C25.6972 36.8808 26.1977 36.8808 26.6072 36.6742C27.1077 36.4137 27.2897 35.9285 27.3898 35.5871C27.4353 35.6051 27.4808 35.623 27.5263 35.632C28.1541 35.8566 29.1096 36.198 30.4291 35.9015C30.8567 35.8027 31.4482 35.8926 32.0124 35.9734C32.9224 36.1082 33.8597 36.2519 34.5421 35.7039C34.9516 35.3804 35.1791 34.8594 35.2246 34.1765C35.2701 33.3859 35.3611 31.9574 35.5795 31.5621C35.6068 31.5711 35.6523 31.589 35.6978 31.625C35.9981 31.7957 36.2074 31.9664 36.4167 32.1371C37.1355 32.7211 37.727 33.0805 39.2922 32.8109C40.3113 32.6402 40.7299 32.4426 40.9938 32.2629C41.0393 32.3707 41.0666 32.7121 40.8664 33.3769C40.6662 34.0058 40.83 34.7066 41.285 35.1648C41.6581 35.5422 42.1677 35.6769 42.65 35.5422C43.1505 35.3984 43.8147 34.9043 44.1514 33.35C44.6883 30.8613 44.1059 29.9629 43.5326 29.1004C43.3961 28.8937 43.2687 28.6961 43.1595 28.4715C42.7046 27.564 41.9402 26.0547 40.5115 26.4051C40.3568 26.441 40.1839 26.4949 40.0111 26.5578C39.82 26.6207 39.4651 26.7375 39.2467 26.7644C39.2467 26.7554 39.2467 26.7375 39.2467 26.7285C39.2831 26.45 39.3104 26.1984 39.3377 25.9558C39.4378 24.9406 39.5106 24.4375 39.9474 24.141C41.0302 23.4043 40.8391 21.9129 40.7026 20.8258C40.6753 20.6371 40.6571 20.4574 40.6389 20.3047C40.6298 20.1609 40.6662 20.0531 40.7754 19.9633C40.9756 19.8015 41.2759 19.7476 41.4124 19.7566C41.5489 19.9363 41.6581 20.6281 41.7218 21.0863L41.7582 21.3379C41.9311 22.425 42.7137 23.8535 45.4709 24.4465C45.9441 24.5453 46.3717 24.3836 46.6174 23.9972C47.2453 23.0179 46.2262 20.673 45.4527 19.7387Z" fill="#F5FDFC"/>
</g>
<defs>
<clipPath id="clip0_156_24928">
<rect width="46.5905" height="46" fill="white" transform="translate(0.21814)"/>
</clipPath>
</defs>
</svg>
