<svg width="50" height="50" viewBox="0 0 50 50" fill="none" xmlns="http://www.w3.org/2000/svg">
<path d="M25.4062 7C15.2377 7 7 15.2389 7 25.4062C7 35.5736 15.2389 43.8125 25.4062 43.8125C35.5748 43.8125 43.8125 35.5736 43.8125 25.4062C43.8125 15.2389 35.5736 7 25.4062 7ZM34.4467 19.6101L31.4257 33.8458C31.2024 34.8552 30.6016 35.0998 29.7632 34.6248L25.1616 31.2333L22.9422 33.3708C22.6976 33.6154 22.4897 33.8232 22.0148 33.8232L22.3413 29.1397L30.8687 21.4353C31.2404 21.1087 30.7868 20.9234 30.2964 21.25L19.7573 27.8846L15.2151 26.4667C14.2283 26.1556 14.2057 25.4799 15.4229 25.0049L33.1689 18.1613C33.9931 17.8644 34.7127 18.362 34.4455 19.6089L34.4467 19.6101Z" fill="#F5FDFC"/>
</svg>
